<svg xmlns="http://www.w3.org/2000/svg" viewBox="0 0 128 128">
    <defs>
        <linearGradient id="grad1" x1="0%" y1="0%" x2="100%" y2="100%">
            <stop offset="0%" style="stop-color:#007aff;stop-opacity:1" />
            <stop offset="50%" style="stop-color:#af52de;stop-opacity:1" />
            <stop offset="100%" style="stop-color:#ff2d55;stop-opacity:1" />
        </linearGradient>
    </defs>
    <rect width="128" height="128" rx="28" fill="url(#grad1)"/>
    <path d="M64 24C41.9 24 24 41.9 24 64s17.9 40 40 40 40-17.9 40-40-17.9-40-40-40zm0 72c-17.7 0-32-14.3-32-32s14.3-32 32-32 32 14.3 32 32-14.3 32-32 32z" fill="white" opacity="0.3"/>
    <path d="M64 40c-13.3 0-24 10.7-24 24s10.7 24 24 24 24-10.7 24-24-10.7-24-24-24zm0 40c-8.8 0-16-7.2-16-16s7.2-16 16-16 16 7.2 16 16-7.2 16-16 16z" fill="white"/>
    <circle cx="64" cy="64" r="8" fill="white"/>
    <path d="M64 32v8M64 88v8M32 64h8M88 64h8" stroke="white" stroke-width="4" stroke-linecap="round" opacity="0.5"/>
</svg>
